<?xml version="1.0" standalone="no"?>
<!DOCTYPE svg PUBLIC "-//W3C//DTD SVG 20010904//EN"
 "http://www.w3.org/TR/2001/REC-SVG-20010904/DTD/svg10.dtd">
<svg version="1.0" xmlns="http://www.w3.org/2000/svg"
 width="932.000000pt" height="1080.000000pt" viewBox="0 0 932.000000 1080.000000"
 preserveAspectRatio="xMidYMid meet">

<g transform="translate(0.000000,1080.000000) scale(0.100000,-0.100000)"
fill="#000000" stroke="none">
<path d="M5868 10394 c-54 -29 -58 -52 -62 -321 -5 -289 -19 -374 -87 -511
-74 -152 -199 -260 -368 -320 -76 -27 -77 -27 -366 -27 -159 -1 -306 -4 -326
-9 -36 -8 -37 -7 -44 30 -10 58 -42 112 -78 135 -50 32 -158 22 -278 -26 -223
-89 -349 -181 -481 -356 -46 -61 -56 -69 -78 -65 -14 3 -56 12 -95 20 -38 9
-80 16 -92 16 -27 0 -30 21 -37 240 -3 85 -14 227 -26 315 -24 189 -44 240
-103 269 -37 18 -41 18 -110 1 -83 -19 -265 -103 -364 -167 -37 -25 -105 -79
-149 -121 l-82 -77 -43 25 c-106 60 -239 11 -412 -154 -115 -110 -218 -273
-265 -421 -33 -105 -45 -178 -45 -287 l0 -102 -112 -115 c-220 -223 -349 -470
-400 -765 -8 -46 -15 -98 -15 -117 0 -62 -13 -79 -82 -103 -136 -49 -311 -186
-402 -315 -224 -316 -248 -774 -61 -1149 196 -390 538 -633 990 -702 143 -22
433 -30 605 -16 309 25 320 25 319 10 0 -8 -63 -63 -140 -124 -390 -307 -630
-646 -735 -1040 -86 -324 -98 -734 -28 -1007 26 -105 66 -222 94 -278 38 -76
38 -76 -42 -100 -182 -56 -391 -181 -503 -301 -110 -118 -204 -275 -254 -424
-34 -101 -71 -294 -71 -367 0 -112 86 -183 250 -209 54 -8 840 -12 2929 -13
2671 -1 2863 0 2965 16 555 89 994 357 1270 775 185 280 272 544 283 858 15
408 -84 742 -329 1107 -32 48 -58 92 -58 99 0 6 32 48 71 93 249 285 373 603
386 991 6 197 -1 240 -50 281 l-32 27 -130 -7 c-426 -21 -788 -197 -989 -479
-44 -63 -116 -195 -116 -215 0 -22 -19 -20 -91 9 -357 147 -668 210 -1039 210
-256 0 -448 -28 -680 -98 -276 -83 -530 -252 -681 -451 -27 -36 -54 -80 -61
-98 -7 -19 -15 -34 -18 -34 -4 0 -15 18 -25 39 -13 30 -16 52 -11 86 18 118
65 209 276 535 73 113 159 256 192 318 l60 112 145 0 c259 0 478 48 688 149
175 85 335 210 354 277 14 52 -5 90 -97 185 -213 221 -303 398 -319 624 -4 66
-1 113 11 174 44 219 119 347 313 537 62 61 113 119 114 130 3 47 -4 81 -22
111 -42 68 -275 244 -426 321 -51 26 -93 50 -93 53 0 3 25 23 55 43 92 64 232
211 302 317 109 167 166 315 199 519 29 173 3 419 -67 633 -41 127 -147 340
-209 422 -154 203 -373 395 -450 394 -8 0 -27 -6 -42 -15z m332 -689 c116
-237 157 -408 147 -614 -7 -141 -34 -255 -87 -369 -126 -268 -378 -468 -676
-537 -109 -26 -127 -27 -288 -22 -121 3 -187 10 -226 22 -140 43 -275 144
-332 247 -56 101 -91 256 -92 408 l-1 95 280 -4 c188 -2 306 1 360 9 336 51
599 257 720 565 31 78 59 204 70 315 l7 75 30 -35 c16 -19 55 -89 88 -155z
m-3047 -252 c3 -5 10 -113 17 -242 11 -209 11 -236 -3 -246 -16 -12 -284 -51
-292 -43 -3 3 -14 40 -26 84 -11 43 -27 98 -36 122 -16 42 -15 43 8 69 45 49
214 196 264 229 52 36 61 39 68 27z m-658 -337 c31 -71 73 -212 77 -258 l3
-38 -150 -72 c-83 -40 -167 -85 -186 -100 -48 -37 -59 -35 -59 10 1 105 53
246 129 347 52 69 141 165 153 165 5 0 20 -24 33 -54z m1845 -164 c0 -136 31
-523 50 -623 13 -67 13 -129 0 -129 -5 0 -10 4 -10 8 0 4 -28 27 -62 50 -35
23 -81 58 -103 77 -101 92 -183 139 -281 165 -65 16 -70 28 -44 112 38 126 90
207 196 309 89 84 209 169 242 169 9 0 12 -34 12 -138z m-790 -312 c72 -17
183 -53 210 -67 24 -13 24 -14 -10 -8 -19 3 -62 8 -95 10 -33 1 -82 7 -110 12
-65 11 -436 11 -453 -1 -11 -6 -7 -15 17 -40 61 -63 67 -124 16 -170 -60 -56
-203 -77 -241 -35 -17 19 -19 19 -31 3 -7 -10 -13 -24 -13 -32 0 -8 -20 -38
-45 -67 -32 -37 -63 -60 -107 -80 -54 -24 -68 -27 -126 -21 -63 7 -114 32
-149 76 -17 21 -16 71 3 126 17 50 11 71 -12 40 -9 -13 -25 -19 -50 -18 -28 1
-37 -3 -41 -17 -3 -11 -16 -22 -29 -25 -13 -4 -24 -11 -24 -16 0 -6 -6 -10
-14 -10 -8 0 -29 -14 -48 -30 -101 -92 -100 -91 -89 -104 6 -8 9 -21 5 -30 -4
-12 0 -16 15 -16 37 0 131 -52 165 -92 86 -100 80 -275 -13 -380 -62 -70 -186
-109 -286 -88 -74 15 -106 33 -150 82 -80 88 -99 191 -53 290 35 76 222 270
253 263 11 -3 14 -2 7 1 -10 5 -10 9 -1 20 6 8 15 11 20 8 5 -3 9 1 9 9 0 29
162 139 310 210 228 109 412 172 592 201 107 18 491 15 568 -4z m-41 -191 c43
-40 4 -119 -58 -119 -39 0 -71 33 -65 67 12 66 78 93 123 52z m-1332 -245 c-3
-3 -12 -4 -19 -1 -8 3 -5 6 6 6 11 1 17 -2 13 -5z m-46 -27 c-10 -9 -11 -8 -5
6 3 10 9 15 12 12 3 -3 0 -11 -7 -18z m1322 -162 c116 -41 190 -89 288 -188
105 -104 144 -174 180 -317 36 -142 16 -305 -55 -455 -48 -102 -165 -224 -259
-270 -104 -51 -212 -76 -332 -76 -191 0 -319 55 -466 201 -108 108 -157 189
-189 316 -40 155 -22 298 57 464 38 78 58 107 117 163 39 38 96 84 127 102
157 92 370 116 532 60z m2362 -157 c94 -23 287 -97 280 -108 -2 -4 -39 -13
-82 -20 -169 -27 -376 -95 -465 -152 -32 -21 -61 -38 -63 -38 -3 0 -18 26 -35
58 -17 31 -36 66 -43 77 -6 10 -35 55 -63 100 l-50 80 60 3 c34 1 113 9 176
16 129 15 170 13 285 -16z m355 -362 c0 -3 -12 -18 -26 -33 -89 -95 -167 -243
-220 -418 -39 -132 -46 -336 -14 -472 24 -104 78 -242 117 -299 13 -20 22 -38
20 -40 -14 -14 -337 113 -372 147 -6 6 -10 92 -11 212 -1 226 -17 362 -64 556
-17 67 -30 123 -30 125 0 13 156 103 221 127 130 48 379 110 379 95z m-1215
-177 c79 -42 125 -112 125 -192 0 -84 -71 -175 -155 -199 -81 -22 -194 23
-230 91 -28 54 -37 121 -24 174 28 119 175 184 284 126z m-3292 -192 c25 -19
93 -53 153 -77 141 -56 148 -60 136 -72 -6 -6 -39 -1 -93 13 -67 18 -112 22
-224 23 -217 0 -314 -32 -426 -143 -56 -56 -71 -79 -99 -151 -28 -74 -33 -101
-37 -205 -6 -134 6 -252 38 -359 29 -98 86 -239 127 -311 32 -58 33 -59 7 -35
-15 14 -48 54 -75 90 -150 202 -206 373 -198 599 4 107 10 141 37 223 37 115
107 225 184 293 94 83 247 142 369 144 51 1 63 -3 101 -32z m2612 -255 c69
-35 118 -80 147 -136 31 -60 23 -167 -17 -232 -71 -114 -244 -172 -422 -140
-60 10 -94 23 -129 47 -99 68 -136 128 -136 220 0 98 59 180 167 233 76 37
123 46 235 42 83 -3 103 -7 155 -34z m665 -138 c60 -40 68 -97 21 -144 -36
-36 -71 -46 -108 -28 -59 28 -63 95 -8 154 36 38 58 42 95 18z m6 -463 c108
-54 149 -166 107 -299 -39 -124 -193 -210 -308 -172 -90 30 -165 138 -165 240
0 103 79 223 165 250 47 15 155 5 201 -19z m734 -196 c68 -35 273 -101 375
-121 47 -9 85 -21 85 -26 0 -12 -74 -44 -172 -73 -85 -26 -248 -52 -361 -58
-58 -3 -68 -1 -63 12 3 9 15 54 27 101 12 47 28 109 36 138 7 28 16 52 19 52
2 0 27 -11 54 -25z m-1468 -405 c-16 -63 -42 -146 -57 -185 -47 -120 -164
-355 -239 -480 -40 -66 -100 -167 -134 -225 -230 -395 -353 -831 -338 -1201 6
-158 14 -208 53 -338 14 -46 21 -87 16 -91 -4 -4 -55 -31 -113 -60 -58 -29
-114 -61 -125 -70 -11 -10 -40 -20 -64 -24 -24 -4 -69 -15 -100 -25 -222 -72
-330 -94 -473 -99 -71 -2 -118 -7 -118 -13 0 -6 12 -8 30 -4 16 4 37 1 47 -5
17 -11 17 -11 0 -6 -30 10 -40 -4 -18 -25 11 -11 24 -19 28 -18 27 4 52 -3 57
-18 8 -20 -10 -34 -44 -32 -40 2 -52 0 -46 -9 9 -16 287 -8 341 9 28 9 70 22
95 29 57 15 183 61 190 69 3 4 26 17 52 30 26 13 45 28 42 32 -3 5 1 9 8 9 7
0 19 9 26 20 7 12 18 19 25 18 7 -2 45 17 85 42 59 37 72 50 72 71 0 15 6 32
14 39 12 9 19 4 37 -32 12 -24 31 -56 41 -71 11 -16 31 -49 45 -74 l24 -46
-23 -26 c-13 -14 -39 -41 -58 -61 -59 -60 -177 -223 -213 -296 -62 -123 -111
-257 -162 -441 -22 -79 -32 -103 -45 -103 -54 0 -305 122 -439 213 -72 49
-240 207 -289 272 -125 164 -202 298 -260 450 -126 331 -147 583 -81 940 42
224 93 363 201 543 84 139 315 372 571 576 140 111 267 288 306 428 l18 63
107 7 c123 9 318 46 433 84 163 54 491 231 494 267 1 7 3 5 5 -3 3 -9 -8 -67
-24 -130z m4314 -447 c-9 -106 -39 -240 -66 -293 -11 -22 -20 -45 -20 -53 0
-7 -5 -18 -12 -25 -6 -6 -12 -23 -14 -37 -3 -27 -69 -168 -88 -188 -6 -7 -36
-46 -65 -87 -30 -41 -65 -86 -78 -99 l-23 -24 -28 24 c-15 13 -49 44 -77 69
-27 25 -102 83 -165 128 -63 45 -125 90 -137 100 l-21 17 39 89 c98 223 320
380 634 446 139 29 129 35 121 -67z m-4040 -331 c11 -6 38 -30 58 -53 37 -40
38 -43 34 -105 -5 -76 -25 -109 -88 -141 -57 -30 -143 -31 -184 -3 -95 62
-101 207 -11 276 64 49 131 58 191 26z m2104 -87 c19 -3 80 -12 135 -21 220
-34 595 -158 627 -208 14 -21 8 -25 -19 -10 -16 7 -36 14 -45 14 -10 0 -41 9
-70 19 -29 11 -80 27 -113 35 -33 9 -114 34 -180 56 -169 57 -159 55 -151 42
4 -7 1 -12 -8 -12 -13 0 -12 -6 5 -34 11 -19 22 -59 25 -88 6 -69 -22 -120
-90 -162 -132 -82 -305 9 -306 159 0 51 29 122 56 138 19 11 17 22 -3 25 -93
12 -142 12 -275 -3 -221 -24 -446 -71 -545 -115 -13 -6 -33 -14 -45 -19 -56
-23 -156 -72 -188 -92 -35 -22 -35 -22 8 23 52 54 199 134 317 172 102 34 293
73 415 85 95 10 384 7 450 -4z m-2297 -401 c98 -50 132 -136 87 -224 -61 -120
-222 -131 -298 -19 -20 29 -23 44 -20 96 5 73 25 107 84 140 46 27 103 29 147
7z m3311 -40 c14 -11 35 -38 47 -62 32 -64 20 -123 -34 -178 -54 -54 -106 -64
-171 -36 -121 54 -130 226 -16 285 44 22 137 17 174 -9z m-1032 -104 c146 -25
275 -67 416 -136 278 -137 516 -381 567 -582 19 -73 14 -120 -20 -201 -20 -49
-23 -52 -30 -30 -10 36 -63 136 -108 204 -52 79 -213 236 -310 303 -219 151
-533 252 -785 252 -108 0 -112 1 -199 41 -48 23 -128 56 -178 75 -87 34 -120
52 -111 62 17 16 201 30 408 31 193 1 257 -3 350 -19z m-2178 -321 c53 -15
121 -80 143 -137 33 -87 20 -173 -40 -254 -60 -81 -248 -76 -333 9 -44 44 -64
93 -64 160 0 156 142 264 294 222z m611 -30 c82 -23 145 -127 132 -221 -7 -52
-51 -115 -97 -139 -44 -24 -148 -26 -191 -3 -105 54 -146 159 -100 260 42 92
145 134 256 103z m768 -90 c36 -11 76 -32 91 -45 74 -69 93 -197 42 -275 -39
-59 -73 -85 -134 -104 -44 -14 -61 -15 -99 -6 -60 15 -92 32 -127 67 -123 124
-69 315 106 369 56 18 48 18 121 -6z m1052 -184 c158 -86 284 -204 368 -346
21 -37 37 -77 37 -95 0 -28 -5 -34 -52 -54 -72 -31 -147 -52 -163 -46 -7 2
-16 20 -20 38 -31 155 -140 367 -266 519 -48 57 -49 67 -6 41 17 -10 64 -36
102 -57z m-565 -107 c54 -37 75 -73 75 -128 0 -82 -68 -136 -162 -128 -44 4
-60 11 -88 38 -64 62 -53 136 28 205 49 42 97 46 147 13z m-540 -268 c65 -11
133 -29 200 -55 112 -43 155 -65 269 -139 294 -193 372 -224 604 -247 219 -21
385 5 552 86 101 48 170 104 212 170 33 54 44 57 33 11 -20 -92 -114 -204
-225 -271 -63 -38 -203 -86 -317 -110 -113 -24 -324 -20 -468 10 -199 40 -288
78 -492 211 -237 154 -396 203 -599 183 -142 -13 -237 -57 -335 -154 -90 -89
-146 -199 -173 -336 -22 -113 -37 -100 -28 24 7 99 45 234 91 325 114 224 380
338 676 292z m-2903 -396 c-3 -3 -12 -4 -19 -1 -8 3 -5 6 6 6 11 1 17 -2 13
-5z m1327 -68 c67 -20 121 -59 153 -109 24 -36 27 -52 27 -117 -1 -89 -20
-137 -72 -180 -96 -79 -278 -81 -378 -5 -40 31 -86 122 -88 174 -1 55 67 140
154 193 99 59 131 66 204 44z m-1429 -15 c3 -5 1 -12 -5 -16 -5 -3 -10 1 -10
9 0 18 6 21 15 7z m-858 -490 c13 -19 23 -40 23 -47 0 -7 -42 -33 -92 -57
-107 -50 -161 -99 -237 -212 -69 -103 -113 -250 -80 -270 7 -5 4 -14 -7 -26
-16 -18 -16 -19 7 -20 27 -1 -84 -28 -118 -29 -20 0 -22 4 -17 33 20 114 51
215 97 307 44 92 62 116 141 195 93 92 205 168 241 163 10 -2 30 -18 42 -37z
m1753 -301 c24 -24 25 -33 4 -65 -18 -28 -13 -55 11 -55 21 0 19 -7 -15 -50
-35 -44 -50 -79 -59 -140 l-6 -45 -90 0 -90 0 3 30 c6 61 44 181 73 232 36 63
91 113 124 113 14 0 34 -9 45 -20z m1844 -60 c-9 -25 -19 -47 -23 -50 -4 -3
-10 -14 -13 -25 -3 -11 -9 -29 -13 -40 l-8 -20 18 20 c17 19 17 19 2 -5 -9
-14 -20 -24 -25 -23 -5 1 -9 -3 -8 -10 0 -7 -10 -42 -24 -79 l-25 -68 -84 0
-84 0 7 40 c10 61 53 162 87 203 38 46 104 85 160 96 24 4 45 7 46 6 1 0 -5
-21 -13 -45z"/>
<path d="M3155 7863 c-281 -37 -484 -337 -411 -609 58 -219 283 -380 506 -361
201 17 374 140 440 314 35 91 39 214 10 303 -62 194 -217 325 -410 349 -46 6
-89 10 -95 10 -5 -1 -23 -4 -40 -6z m-69 -188 c63 -37 89 -85 89 -165 0 -120
-71 -208 -177 -218 -66 -6 -93 3 -143 49 -44 41 -75 106 -75 159 0 33 43 120
73 148 62 59 160 70 233 27z"/>
</g>
</svg>
